<mxfile host="app.diagrams.net" modified="2021-05-15T20:15:58.851Z" agent="5.0 (X11; CrOS aarch64 13816.64.0) AppleWebKit/537.36 (KHTML, like Gecko) Chrome/90.0.4430.100 Safari/537.36" etag="9VCVxRUXhYVWUoBPqWjF" version="14.6.13" type="github">
  <diagram id="73F5z36VW33BQKJy28QY" name="Page-1">
    <mxGraphModel dx="582" dy="383" grid="1" gridSize="10" guides="1" tooltips="1" connect="1" arrows="1" fold="1" page="1" pageScale="1" pageWidth="850" pageHeight="1100" math="0" shadow="0">
      <root>
        <mxCell id="0" />
        <mxCell id="1" parent="0" />
        <mxCell id="pp0c359MG4jZ7vcR3kYJ-9" style="edgeStyle=orthogonalEdgeStyle;rounded=0;orthogonalLoop=1;jettySize=auto;html=1;exitX=0.5;exitY=1;exitDx=0;exitDy=0;entryX=0.5;entryY=0;entryDx=0;entryDy=0;" edge="1" parent="1" source="pp0c359MG4jZ7vcR3kYJ-1" target="pp0c359MG4jZ7vcR3kYJ-3">
          <mxGeometry relative="1" as="geometry" />
        </mxCell>
        <mxCell id="pp0c359MG4jZ7vcR3kYJ-10" style="edgeStyle=orthogonalEdgeStyle;rounded=0;orthogonalLoop=1;jettySize=auto;html=1;exitX=0.5;exitY=1;exitDx=0;exitDy=0;entryX=0.5;entryY=0;entryDx=0;entryDy=0;" edge="1" parent="1" source="pp0c359MG4jZ7vcR3kYJ-1" target="pp0c359MG4jZ7vcR3kYJ-2">
          <mxGeometry relative="1" as="geometry" />
        </mxCell>
        <mxCell id="pp0c359MG4jZ7vcR3kYJ-11" style="edgeStyle=orthogonalEdgeStyle;rounded=0;orthogonalLoop=1;jettySize=auto;html=1;exitX=0.5;exitY=1;exitDx=0;exitDy=0;entryX=0.5;entryY=0;entryDx=0;entryDy=0;" edge="1" parent="1" source="pp0c359MG4jZ7vcR3kYJ-1" target="pp0c359MG4jZ7vcR3kYJ-4">
          <mxGeometry relative="1" as="geometry" />
        </mxCell>
        <mxCell id="pp0c359MG4jZ7vcR3kYJ-1" value="What number is larger?" style="rounded=0;whiteSpace=wrap;html=1;" vertex="1" parent="1">
          <mxGeometry x="240" y="170" width="120" height="60" as="geometry" />
        </mxCell>
        <mxCell id="pp0c359MG4jZ7vcR3kYJ-12" style="edgeStyle=orthogonalEdgeStyle;rounded=0;orthogonalLoop=1;jettySize=auto;html=1;exitX=0.5;exitY=1;exitDx=0;exitDy=0;entryX=0.5;entryY=0;entryDx=0;entryDy=0;" edge="1" parent="1" source="pp0c359MG4jZ7vcR3kYJ-2" target="pp0c359MG4jZ7vcR3kYJ-6">
          <mxGeometry relative="1" as="geometry" />
        </mxCell>
        <mxCell id="pp0c359MG4jZ7vcR3kYJ-2" value="Input" style="rounded=0;whiteSpace=wrap;html=1;" vertex="1" parent="1">
          <mxGeometry x="90" y="270" width="120" height="60" as="geometry" />
        </mxCell>
        <mxCell id="pp0c359MG4jZ7vcR3kYJ-13" style="edgeStyle=orthogonalEdgeStyle;rounded=0;orthogonalLoop=1;jettySize=auto;html=1;exitX=0.5;exitY=1;exitDx=0;exitDy=0;entryX=0.5;entryY=0;entryDx=0;entryDy=0;" edge="1" parent="1" source="pp0c359MG4jZ7vcR3kYJ-3" target="pp0c359MG4jZ7vcR3kYJ-5">
          <mxGeometry relative="1" as="geometry" />
        </mxCell>
        <mxCell id="pp0c359MG4jZ7vcR3kYJ-3" value="Process" style="rounded=0;whiteSpace=wrap;html=1;" vertex="1" parent="1">
          <mxGeometry x="240" y="270" width="120" height="60" as="geometry" />
        </mxCell>
        <mxCell id="pp0c359MG4jZ7vcR3kYJ-14" style="edgeStyle=orthogonalEdgeStyle;rounded=0;orthogonalLoop=1;jettySize=auto;html=1;exitX=0.5;exitY=1;exitDx=0;exitDy=0;entryX=0.5;entryY=0;entryDx=0;entryDy=0;" edge="1" parent="1" source="pp0c359MG4jZ7vcR3kYJ-4" target="pp0c359MG4jZ7vcR3kYJ-8">
          <mxGeometry relative="1" as="geometry" />
        </mxCell>
        <mxCell id="pp0c359MG4jZ7vcR3kYJ-4" value="Output" style="rounded=0;whiteSpace=wrap;html=1;" vertex="1" parent="1">
          <mxGeometry x="390" y="270" width="120" height="60" as="geometry" />
        </mxCell>
        <mxCell id="pp0c359MG4jZ7vcR3kYJ-5" value="Check which number is bigger" style="rounded=0;whiteSpace=wrap;html=1;" vertex="1" parent="1">
          <mxGeometry x="240" y="370" width="120" height="60" as="geometry" />
        </mxCell>
        <mxCell id="pp0c359MG4jZ7vcR3kYJ-6" value="Get number 1 and number 2" style="rounded=0;whiteSpace=wrap;html=1;" vertex="1" parent="1">
          <mxGeometry x="90" y="370" width="120" height="60" as="geometry" />
        </mxCell>
        <mxCell id="pp0c359MG4jZ7vcR3kYJ-8" value="Show which number is bigger" style="rounded=0;whiteSpace=wrap;html=1;" vertex="1" parent="1">
          <mxGeometry x="390" y="370" width="120" height="60" as="geometry" />
        </mxCell>
      </root>
    </mxGraphModel>
  </diagram>
</mxfile>
